<?xml version="1.0" encoding="UTF-8" standalone="no"?>
<!DOCTYPE svg PUBLIC "-//W3C//DTD SVG 1.1//EN" "http://www.w3.org/Graphics/SVG/1.1/DTD/svg11.dtd">
<svg xmlns="http://www.w3.org/2000/svg" version="1.1" viewBox="0.00 0.00 322.00 365.00">
<path fill="#ffffff" d="
  M 322.00 271.31
  Q 322.00 271.44 322.00 271.56
  L 297.20 363.24
  Q 296.95 364.17 295.99 364.17
  L 0.99 363.98
  Q 0.50 363.98 0.50 363.49
  L 0.50 354.29
  Q 0.50 353.95 0.84 353.92
  Q 15.55 352.87 29.67 348.28
  Q 36.41 346.09 39.87 343.13
  C 48.68 335.57 48.86 312.57 48.85 302.00
  Q 48.77 179.13 48.57 56.25
  C 48.56 46.58 47.63 34.91 43.15 26.58
  C 36.45 14.12 13.28 12.29 1.09 11.39
  Q 0.50 11.34 0.50 10.76
  L 0.50 1.50
  Q 0.50 1.00 1.00 1.00
  L 291.50 1.00
  Q 292.01 1.00 292.02 1.50
  L 293.99 79.25
  Q 294.00 79.75 293.50 79.75
  L 280.26 79.75
  A 0.42 0.42 0.0 0 1 279.85 79.40
  C 276.87 63.04 270.37 37.42 253.65 29.62
  Q 246.93 26.48 237.50 24.97
  Q 218.87 21.98 200.00 21.97
  Q 161.38 21.95 122.75 21.88
  C 117.19 21.87 107.94 22.28 106.13 28.93
  Q 104.59 34.61 104.61 40.50
  Q 104.75 101.51 104.78 162.45
  A 0.29 0.29 0.0 0 0 105.07 162.74
  Q 148.88 162.77 192.75 162.73
  C 205.02 162.72 227.65 161.68 235.43 150.32
  C 243.74 138.17 246.45 124.60 249.39 110.50
  Q 249.50 110.00 250.01 110.00
  L 261.75 110.00
  Q 262.25 110.00 262.25 110.50
  L 262.25 236.50
  Q 262.25 237.00 261.75 237.00
  L 250.00 237.00
  A 0.67 0.67 0.0 0 1 249.35 236.48
  C 246.12 221.79 243.50 210.60 236.91 199.12
  C 229.02 185.39 204.55 184.60 191.00 184.58
  Q 148.13 184.49 105.27 184.49
  Q 104.76 184.49 104.76 185.00
  Q 104.72 253.38 104.78 321.75
  C 104.79 330.70 108.82 339.75 119.00 340.57
  Q 144.78 342.65 181.50 342.40
  C 203.42 342.25 225.11 341.08 245.04 335.39
  C 254.86 332.59 262.80 329.19 270.70 323.05
  C 286.72 310.60 298.19 290.12 306.41 271.77
  Q 306.62 271.30 307.14 271.30
  L 322.00 271.31
  Z"
/>
</svg>
