<?xml version="1.0" encoding="UTF-8" standalone="no"?>
<!DOCTYPE svg PUBLIC "-//W3C//DTD SVG 1.1//EN" "http://www.w3.org/Graphics/SVG/1.1/DTD/svg11.dtd">
<svg xmlns="http://www.w3.org/2000/svg" version="1.1" viewBox="0.00 0.00 650.00 504.00">

<g fill="#ffffff">
<path d="
  M 0.00 0.00
  L 0.54 0.00
  L 0.00 13.38
  L 0.00 0.00
  Z"
/>
<path d="
  M 0.79 0.00
  L 151.24 0.00
  L 326.56 382.08
  A 0.21 0.21 0.0 0 0 326.94 382.08
  L 494.53 0.00
  L 646.27 0.00
  L 645.96 13.03
  Q 645.95 13.61 645.37 13.64
  C 632.54 14.37 618.08 16.10 605.98 20.58
  C 591.49 25.95 585.66 33.87 582.23 48.75
  Q 579.12 62.24 579.14 81.75
  Q 579.25 251.00 579.25 420.25
  C 579.25 432.99 580.06 447.13 583.81 459.10
  C 587.80 471.83 594.82 477.07 606.92 481.08
  C 619.64 485.29 632.26 486.69 645.49 488.20
  Q 646.00 488.26 646.00 488.77
  L 646.04 501.48
  A 0.53 0.53 0.0 0 1 645.51 502.01
  L 433.76 502.03
  Q 433.25 502.03 433.25 501.51
  L 433.25 488.74
  Q 433.25 488.24 433.75 488.19
  C 450.35 486.47 471.85 484.86 486.15 475.40
  Q 493.47 470.55 496.18 461.29
  C 500.79 445.51 501.59 429.72 501.61 412.25
  Q 501.75 241.03 501.77 70.37
  Q 501.77 69.44 501.39 70.29
  L 307.81 501.31
  Q 307.49 502.02 306.72 502.02
  L 297.64 502.02
  A 1.01 1.00 77.5 0 1 296.73 501.43
  L 106.93 89.30
  Q 106.00 87.27 106.00 89.50
  Q 106.03 239.47 106.11 387.00
  C 106.12 413.03 106.91 436.59 116.02 458.71
  C 120.94 470.64 129.14 477.08 141.25 481.19
  C 152.63 485.06 163.95 486.63 176.74 488.17
  Q 177.26 488.23 177.26 488.75
  L 177.25 501.50
  Q 177.25 502.03 176.71 502.03
  L 0.00 502.19
  L 0.00 487.84
  C 15.53 486.54 34.64 483.24 47.71 476.18
  C 57.09 471.11 62.12 464.36 65.59 454.30
  Q 68.56 445.71 70.42 432.50
  Q 72.49 417.77 72.53 388.75
  Q 72.77 234.00 72.73 79.25
  Q 72.73 72.12 71.29 58.25
  C 69.93 45.19 65.41 30.65 53.78 23.96
  Q 48.14 20.70 37.95 18.43
  Q 19.81 14.37 1.39 13.56
  A 0.52 0.52 0.0 0 1 0.89 13.04
  L 0.79 0.00
  Z"
/>
</g>
</svg>
